<?xml version="1.0" encoding="utf-8"?>
<!-- Generator: Adobe Illustrator 23.0.1, SVG Export Plug-In . SVG Version: 6.00 Build 0)  -->
<svg version="1.1" id="Capa_1" xmlns="http://www.w3.org/2000/svg" xmlns:xlink="http://www.w3.org/1999/xlink" x="0px" y="0px"
	 viewBox="0 0 480 480" style="enable-background:new 0 0 480 480;" xml:space="preserve">
<style type="text/css">
	.st0{fill:url(#SVGID_1_);}
	.st1{fill:url(#SVGID_2_);}
	.st2{fill:url(#SVGID_3_);}
	.st3{fill:url(#SVGID_4_);}
	.st4{fill:url(#SVGID_5_);}
	.st5{fill:url(#SVGID_6_);}
	.st6{fill:url(#SVGID_7_);}
	.st7{fill:url(#SVGID_8_);}
	.st8{fill:url(#SVGID_9_);}
	.st9{fill:url(#SVGID_10_);}
	.st10{fill:url(#SVGID_11_);}
	.st11{fill:url(#SVGID_12_);}
	.st12{fill:url(#SVGID_13_);}
	.st13{fill:url(#SVGID_14_);}
	.st14{fill:url(#SVGID_15_);}
	.st15{fill:url(#SVGID_16_);}
	.st16{fill:url(#SVGID_17_);}
	.st17{fill:url(#SVGID_18_);}
	.st18{fill:url(#SVGID_19_);}
</style>
<g>
	<g>
		<linearGradient id="SVGID_1_" gradientUnits="userSpaceOnUse" x1="47.972" y1="45.0722" x2="643.972" y2="650.0722">
			<stop  offset="0" style="stop-color:#BC9B79"/>
			<stop  offset="1" style="stop-color:#3A2121"/>
		</linearGradient>
		<path class="st0" d="M472,0H184c-4.4,0-8,3.6-8,8v72H8c-4.4,0-8,3.6-8,8v384c0,4.4,3.6,8,8,8h288c4.4,0,8-3.6,8-8v-72h168
			c4.4,0,8-3.6,8-8V8C480,3.6,476.4,0,472,0z M192,23.5L271,80h-79V23.5z M288,464H16V96h272V464z M464,384H304V88
			c0-2.6-1.3-5-3.4-6.4l0.1-0.1L209,16h255V384z"/>
	</g>
</g>
<g>
	<g>
		<linearGradient id="SVGID_2_" gradientUnits="userSpaceOnUse" x1="205.0416" y1="-109.6608" x2="801.0416" y2="495.3392">
			<stop  offset="0" style="stop-color:#BC9B79"/>
			<stop  offset="1" style="stop-color:#3A2121"/>
		</linearGradient>
		<path class="st1" d="M432,40h-96c-4.4,0-8,3.6-8,8v48c0,4.4,3.6,8,8,8h96c4.4,0,8-3.6,8-8V48C440,43.6,436.4,40,432,40z M424,88
			h-80V56h80V88z"/>
	</g>
</g>
<g>
	<g>
		<linearGradient id="SVGID_3_" gradientUnits="userSpaceOnUse" x1="152.6851" y1="-58.0831" x2="748.6851" y2="546.9169">
			<stop  offset="0" style="stop-color:#BC9B79"/>
			<stop  offset="1" style="stop-color:#3A2121"/>
		</linearGradient>
		<rect x="328" y="120" class="st2" width="16" height="16"/>
	</g>
</g>
<g>
	<g>
		<linearGradient id="SVGID_4_" gradientUnits="userSpaceOnUse" x1="185.1646" y1="-90.0795" x2="781.1646" y2="514.9205">
			<stop  offset="0" style="stop-color:#BC9B79"/>
			<stop  offset="1" style="stop-color:#3A2121"/>
		</linearGradient>
		<rect x="360" y="120" class="st3" width="80" height="16"/>
	</g>
</g>
<g>
	<g>
		<linearGradient id="SVGID_5_" gradientUnits="userSpaceOnUse" x1="161.0465" y1="-66.3202" x2="757.0465" y2="538.6798">
			<stop  offset="0" style="stop-color:#BC9B79"/>
			<stop  offset="1" style="stop-color:#3A2121"/>
		</linearGradient>
		<rect x="328" y="152" class="st4" width="112" height="16"/>
	</g>
</g>
<g>
	<g>
		<linearGradient id="SVGID_6_" gradientUnits="userSpaceOnUse" x1="145.0483" y1="-50.56" x2="741.0483" y2="554.44">
			<stop  offset="0" style="stop-color:#BC9B79"/>
			<stop  offset="1" style="stop-color:#3A2121"/>
		</linearGradient>
		<rect x="328" y="184" class="st5" width="112" height="16"/>
	</g>
</g>
<g>
	<g>
		<linearGradient id="SVGID_7_" gradientUnits="userSpaceOnUse" x1="109.0524" y1="-15.0995" x2="705.0524" y2="589.9005">
			<stop  offset="0" style="stop-color:#BC9B79"/>
			<stop  offset="1" style="stop-color:#3A2121"/>
		</linearGradient>
		<path class="st6" d="M432,232h-96c-4.4,0-8,3.6-8,8v48c0,4.4,3.6,8,8,8h96c4.4,0,8-3.6,8-8v-48C440,235.6,436.4,232,432,232z
			 M424,280h-80v-32h80V280z"/>
	</g>
</g>
<g>
	<g>
		<linearGradient id="SVGID_8_" gradientUnits="userSpaceOnUse" x1="56.6958" y1="36.4782" x2="652.6959" y2="641.4781">
			<stop  offset="0" style="stop-color:#BC9B79"/>
			<stop  offset="1" style="stop-color:#3A2121"/>
		</linearGradient>
		<rect x="328" y="312" class="st7" width="16" height="16"/>
	</g>
</g>
<g>
	<g>
		<linearGradient id="SVGID_9_" gradientUnits="userSpaceOnUse" x1="89.1754" y1="4.4817" x2="685.1754" y2="609.4818">
			<stop  offset="0" style="stop-color:#BC9B79"/>
			<stop  offset="1" style="stop-color:#3A2121"/>
		</linearGradient>
		<rect x="360" y="312" class="st8" width="80" height="16"/>
	</g>
</g>
<g>
	<g>
		<linearGradient id="SVGID_10_" gradientUnits="userSpaceOnUse" x1="65.0573" y1="28.2411" x2="661.0573" y2="633.2411">
			<stop  offset="0" style="stop-color:#BC9B79"/>
			<stop  offset="1" style="stop-color:#3A2121"/>
		</linearGradient>
		<rect x="328" y="344" class="st9" width="112" height="16"/>
	</g>
</g>
<g>
	<g>
		<linearGradient id="SVGID_11_" gradientUnits="userSpaceOnUse" x1="-113.218" y1="203.8643" x2="482.782" y2="808.8643">
			<stop  offset="0" style="stop-color:#BC9B79"/>
			<stop  offset="1" style="stop-color:#3A2121"/>
		</linearGradient>
		<path class="st10" d="M112,360H48c-4.4,0-8,3.6-8,8v64c0,4.4,3.6,8,8,8h64c4.4,0,8-3.6,8-8v-64C120,363.6,116.4,360,112,360z
			 M104,424H56v-48h48V424z"/>
	</g>
</g>
<g>
	<g>
		<linearGradient id="SVGID_12_" gradientUnits="userSpaceOnUse" x1="-64.7402" y1="156.1077" x2="531.2598" y2="761.1077">
			<stop  offset="0" style="stop-color:#BC9B79"/>
			<stop  offset="1" style="stop-color:#3A2121"/>
		</linearGradient>
		<rect x="136" y="360" class="st11" width="16" height="16"/>
	</g>
</g>
<g>
	<g>
		<linearGradient id="SVGID_13_" gradientUnits="userSpaceOnUse" x1="-28.2007" y1="120.1117" x2="567.7993" y2="725.1118">
			<stop  offset="0" style="stop-color:#BC9B79"/>
			<stop  offset="1" style="stop-color:#3A2121"/>
		</linearGradient>
		<rect x="168" y="360" class="st12" width="96" height="16"/>
	</g>
</g>
<g>
	<g>
		<linearGradient id="SVGID_14_" gradientUnits="userSpaceOnUse" x1="-52.3188" y1="143.871" x2="543.6812" y2="748.871">
			<stop  offset="0" style="stop-color:#BC9B79"/>
			<stop  offset="1" style="stop-color:#3A2121"/>
		</linearGradient>
		<rect x="136" y="392" class="st13" width="128" height="16"/>
	</g>
</g>
<g>
	<g>
		<linearGradient id="SVGID_15_" gradientUnits="userSpaceOnUse" x1="-68.317" y1="159.6313" x2="527.683" y2="764.6313">
			<stop  offset="0" style="stop-color:#BC9B79"/>
			<stop  offset="1" style="stop-color:#3A2121"/>
		</linearGradient>
		<rect x="136" y="424" class="st14" width="128" height="16"/>
	</g>
</g>
<g>
	<g>
		<linearGradient id="SVGID_16_" gradientUnits="userSpaceOnUse" x1="15.3112" y1="77.2471" x2="611.3112" y2="682.2471">
			<stop  offset="0" style="stop-color:#BC9B79"/>
			<stop  offset="0.4267" style="stop-color:#BA9978"/>
			<stop  offset="0.5804" style="stop-color:#B39373"/>
			<stop  offset="0.6899" style="stop-color:#A8886B"/>
			<stop  offset="0.7785" style="stop-color:#977860"/>
			<stop  offset="0.8543" style="stop-color:#816351"/>
			<stop  offset="0.9215" style="stop-color:#654A3E"/>
			<stop  offset="0.9808" style="stop-color:#462C29"/>
			<stop  offset="1" style="stop-color:#3A2121"/>
		</linearGradient>
		<path class="st15" d="M248,128H56c-4.4,0-8,3.6-8,8v160c0,4.4,3.6,8,8,8h192c4.4,0,8-3.6,8-8V136C256,131.6,252.4,128,248,128z
			 M240,288H64v-28.3l47.6-40.8l58.8,58.8l11.3-11.3L171.3,256l28.7-28.7l40,40V288z M240,244.7l-34.3-34.3c-3.1-3.1-8.2-3.1-11.3,0
			L160,244.7l-42.3-42.3c-3-3-7.7-3.1-10.9-0.4L64,238.6V144h176V244.7z"/>
	</g>
</g>
<g>
	<g>
		<linearGradient id="SVGID_17_" gradientUnits="userSpaceOnUse" x1="35.3694" y1="57.4874" x2="631.3694" y2="662.4874">
			<stop  offset="0" style="stop-color:#BC9B79"/>
			<stop  offset="1" style="stop-color:#3A2121"/>
		</linearGradient>
		<path class="st16" d="M160,160c-13.3,0-24,10.7-24,24s10.7,24,24,24s24-10.7,24-24S173.3,160,160,160z M160,192c-4.4,0-8-3.6-8-8
			s3.6-8,8-8s8,3.6,8,8S164.4,192,160,192z"/>
	</g>
</g>
<g>
	<g>
		<linearGradient id="SVGID_18_" gradientUnits="userSpaceOnUse" x1="10.8889" y1="81.6037" x2="606.8889" y2="686.6036">
			<stop  offset="0" style="stop-color:#BC9B79"/>
			<stop  offset="1" style="stop-color:#3A2121"/>
		</linearGradient>
		<rect x="88" y="160" class="st17" width="16" height="16"/>
	</g>
</g>
<g>
	<g>
		<linearGradient id="SVGID_19_" gradientUnits="userSpaceOnUse" x1="63.789" y1="29.4905" x2="659.789" y2="634.4905">
			<stop  offset="0" style="stop-color:#BC9B79"/>
			<stop  offset="1" style="stop-color:#3A2121"/>
		</linearGradient>
		<rect x="208" y="176" class="st18" width="16" height="16"/>
	</g>
</g>
</svg>
