<?xml version="1.0" encoding="utf-8"?>
<!-- Generator: Adobe Illustrator 23.0.1, SVG Export Plug-In . SVG Version: 6.00 Build 0)  -->
<svg version="1.1" id="Capa_1" xmlns="http://www.w3.org/2000/svg" xmlns:xlink="http://www.w3.org/1999/xlink" x="0px" y="0px"
	 viewBox="0 0 480 480" style="enable-background:new 0 0 480 480;" xml:space="preserve">
<style type="text/css">
	.st0{fill:#FFFFFF;}
</style>
<g>
	<g>
		<path class="st0" d="M472,0H184c-4.4,0-8,3.6-8,8v72H8c-4.4,0-8,3.6-8,8v384c0,4.4,3.6,8,8,8h288c4.4,0,8-3.6,8-8v-72h168
			c4.4,0,8-3.6,8-8V8C480,3.6,476.4,0,472,0z M192,23.5L271,80h-79V23.5z M288,464H16V96h272V464z M464,384H304V88
			c0-2.6-1.3-5-3.4-6.4l0.1-0.1L209,16h255V384z"/>
	</g>
</g>
<g>
	<g>
		<path class="st0" d="M432,40h-96c-4.4,0-8,3.6-8,8v48c0,4.4,3.6,8,8,8h96c4.4,0,8-3.6,8-8V48C440,43.6,436.4,40,432,40z M424,88
			h-80V56h80V88z"/>
	</g>
</g>
<g>
	<g>
		<rect x="328" y="120" class="st0" width="16" height="16"/>
	</g>
</g>
<g>
	<g>
		<rect x="360" y="120" class="st0" width="80" height="16"/>
	</g>
</g>
<g>
	<g>
		<rect x="328" y="152" class="st0" width="112" height="16"/>
	</g>
</g>
<g>
	<g>
		<rect x="328" y="184" class="st0" width="112" height="16"/>
	</g>
</g>
<g>
	<g>
		<path class="st0" d="M432,232h-96c-4.4,0-8,3.6-8,8v48c0,4.4,3.6,8,8,8h96c4.4,0,8-3.6,8-8v-48C440,235.6,436.4,232,432,232z
			 M424,280h-80v-32h80V280z"/>
	</g>
</g>
<g>
	<g>
		<rect x="328" y="312" class="st0" width="16" height="16"/>
	</g>
</g>
<g>
	<g>
		<rect x="360" y="312" class="st0" width="80" height="16"/>
	</g>
</g>
<g>
	<g>
		<rect x="328" y="344" class="st0" width="112" height="16"/>
	</g>
</g>
<g>
	<g>
		<path class="st0" d="M112,360H48c-4.4,0-8,3.6-8,8v64c0,4.4,3.6,8,8,8h64c4.4,0,8-3.6,8-8v-64C120,363.6,116.4,360,112,360z
			 M104,424H56v-48h48V424z"/>
	</g>
</g>
<g>
	<g>
		<rect x="136" y="360" class="st0" width="16" height="16"/>
	</g>
</g>
<g>
	<g>
		<rect x="168" y="360" class="st0" width="96" height="16"/>
	</g>
</g>
<g>
	<g>
		<rect x="136" y="392" class="st0" width="128" height="16"/>
	</g>
</g>
<g>
	<g>
		<rect x="136" y="424" class="st0" width="128" height="16"/>
	</g>
</g>
<g>
	<g>
		<path class="st0" d="M248,128H56c-4.4,0-8,3.6-8,8v160c0,4.4,3.6,8,8,8h192c4.4,0,8-3.6,8-8V136C256,131.6,252.4,128,248,128z
			 M240,288H64v-28.3l47.6-40.8l58.8,58.8l11.3-11.3L171.3,256l28.7-28.7l40,40V288z M240,244.7l-34.3-34.3c-3.1-3.1-8.2-3.1-11.3,0
			L160,244.7l-42.3-42.3c-3-3-7.7-3.1-10.9-0.4L64,238.6V144h176V244.7z"/>
	</g>
</g>
<g>
	<g>
		<path class="st0" d="M160,160c-13.3,0-24,10.7-24,24s10.7,24,24,24s24-10.7,24-24S173.3,160,160,160z M160,192c-4.4,0-8-3.6-8-8
			s3.6-8,8-8s8,3.6,8,8S164.4,192,160,192z"/>
	</g>
</g>
<g>
	<g>
		<rect x="88" y="160" class="st0" width="16" height="16"/>
	</g>
</g>
<g>
	<g>
		<rect x="208" y="176" class="st0" width="16" height="16"/>
	</g>
</g>
</svg>
