<?xml version="1.0" encoding="utf-8"?>
<!-- Generator: Adobe Illustrator 23.0.1, SVG Export Plug-In . SVG Version: 6.00 Build 0)  -->
<svg version="1.1" id="Layer_1" xmlns="http://www.w3.org/2000/svg" xmlns:xlink="http://www.w3.org/1999/xlink" x="0px" y="0px"
	 viewBox="0 0 511.8 511.8" style="enable-background:new 0 0 511.8 511.8;" xml:space="preserve">
<style type="text/css">
	.st0{fill:url(#SVGID_1_);}
	.st1{fill:url(#SVGID_2_);}
	.st2{fill:url(#SVGID_3_);}
	.st3{fill:url(#SVGID_4_);}
	.st4{fill:url(#SVGID_5_);}
	.st5{fill:url(#SVGID_6_);}
	.st6{fill:url(#SVGID_7_);}
	.st7{fill:url(#SVGID_8_);}
	.st8{fill:url(#SVGID_9_);}
	.st9{fill:url(#SVGID_10_);}
	.st10{fill:url(#SVGID_11_);}
	.st11{fill:url(#SVGID_12_);}
	.st12{fill:url(#SVGID_13_);}
	.st13{fill:url(#SVGID_14_);}
	.st14{fill:url(#SVGID_15_);}
	.st15{fill:url(#SVGID_16_);}
</style>
<g>
	<g>
		<g>
			<linearGradient id="SVGID_1_" gradientUnits="userSpaceOnUse" x1="100.2689" y1="-90.9664" x2="705.2689" y2="542.0336">
				<stop  offset="1.240079e-03" style="stop-color:#BC9B79"/>
				<stop  offset="0.9987" style="stop-color:#3A2121"/>
			</linearGradient>
			<path class="st0" d="M307.1,179c0,4.7,3.8,8.5,8.5,8.5H401c4.7,0,8.5-3.8,8.5-8.5s-3.8-8.5-8.5-8.5h-85.3
				C310.9,170.5,307.1,174.3,307.1,179z"/>
			<linearGradient id="SVGID_2_" gradientUnits="userSpaceOnUse" x1="92.5335" y1="-83.5731" x2="697.5335" y2="549.4269">
				<stop  offset="1.240079e-03" style="stop-color:#BC9B79"/>
				<stop  offset="0.9987" style="stop-color:#3A2121"/>
			</linearGradient>
			<path class="st1" d="M358.3,230.2c0,4.7,3.8,8.5,8.5,8.5H418c4.7,0,8.5-3.8,8.5-8.5s-3.8-8.5-8.5-8.5h-51.2
				C362.1,221.7,358.3,225.5,358.3,230.2z"/>
			<linearGradient id="SVGID_3_" gradientUnits="userSpaceOnUse" x1="116.9235" y1="-106.8842" x2="721.9235" y2="526.1158">
				<stop  offset="1.240079e-03" style="stop-color:#BC9B79"/>
				<stop  offset="0.9987" style="stop-color:#3A2121"/>
			</linearGradient>
			<path class="st2" d="M349.8,136.3c4.7,0,8.5-3.8,8.5-8.5s-3.8-8.5-8.5-8.5h-17.1c-4.7,0-8.5,3.8-8.5,8.5s3.8,8.5,8.5,8.5H349.8z"
				/>
			<linearGradient id="SVGID_4_" gradientUnits="userSpaceOnUse" x1="39.0189" y1="-32.4256" x2="644.0189" y2="600.5743">
				<stop  offset="1.240079e-03" style="stop-color:#BC9B79"/>
				<stop  offset="0.9987" style="stop-color:#3A2121"/>
			</linearGradient>
			<path class="st3" d="M247.4,221.7c-4.7,0-8.5,3.8-8.5,8.5s3.8,8.5,8.5,8.5h85.3c4.7,0,8.5-3.8,8.5-8.5s-3.8-8.5-8.5-8.5H247.4z"
				/>
			<linearGradient id="SVGID_5_" gradientUnits="userSpaceOnUse" x1="-71.2245" y1="72.9413" x2="533.7755" y2="705.9413">
				<stop  offset="1.240079e-03" style="stop-color:#BC9B79"/>
				<stop  offset="0.9987" style="stop-color:#3A2121"/>
			</linearGradient>
			<path class="st4" d="M290,460.6H127.9c-14.1,0-25.6-11.5-25.6-25.6V42.5c0-4.7-3.8-8.5-8.5-8.5c-23.5,0-42.7,19.1-42.7,42.7
				c0,4.7,3.8,8.5,8.5,8.5s8.5-3.8,8.5-8.5c0-11.1,7.1-20.6,17.1-24.1V435c0,23.5,19.1,42.7,42.7,42.7H290c4.7,0,8.5-3.8,8.5-8.5
				S294.8,460.6,290,460.6z"/>
			<linearGradient id="SVGID_6_" gradientUnits="userSpaceOnUse" x1="28.916" y1="-22.7697" x2="633.916" y2="610.2303">
				<stop  offset="1.240079e-03" style="stop-color:#BC9B79"/>
				<stop  offset="0.9987" style="stop-color:#3A2121"/>
			</linearGradient>
			<path class="st5" d="M162,187.5h119.5c4.7,0,8.5-3.8,8.5-8.5s-3.8-8.5-8.5-8.5H162c-4.7,0-8.5,3.8-8.5,8.5S157.3,187.5,162,187.5
				z"/>
			<linearGradient id="SVGID_7_" gradientUnits="userSpaceOnUse" x1="32.1918" y1="-25.9006" x2="637.1918" y2="607.0994">
				<stop  offset="1.240079e-03" style="stop-color:#BC9B79"/>
				<stop  offset="0.9987" style="stop-color:#3A2121"/>
			</linearGradient>
			<path class="st6" d="M162,136.3h34.1c4.7,0,8.5-3.8,8.5-8.5s-3.8-8.5-8.5-8.5H162c-4.7,0-8.5,3.8-8.5,8.5S157.3,136.3,162,136.3z
				"/>
			<linearGradient id="SVGID_8_" gradientUnits="userSpaceOnUse" x1="76.7879" y1="-68.524" x2="681.788" y2="564.476">
				<stop  offset="1.240079e-03" style="stop-color:#BC9B79"/>
				<stop  offset="0.9987" style="stop-color:#3A2121"/>
			</linearGradient>
			<path class="st7" d="M298.6,119.3h-68.3c-4.7,0-8.5,3.8-8.5,8.5c0,4.7,3.8,8.5,8.5,8.5h68.3c4.7,0,8.5-3.8,8.5-8.5
				C307.1,123.1,303.3,119.3,298.6,119.3z"/>
			<linearGradient id="SVGID_9_" gradientUnits="userSpaceOnUse" x1="97.8489" y1="-88.6534" x2="702.8489" y2="544.3466">
				<stop  offset="1.240079e-03" style="stop-color:#BC9B79"/>
				<stop  offset="0.9987" style="stop-color:#3A2121"/>
			</linearGradient>
			<path class="st8" d="M418,0H93.8C51.5,0,17.1,34.3,17,76.5v0.1v0.1v0.1v0.1c0.1,27.2,14.8,52.6,38.4,66.2c4.1,2.4,9.3,1,11.7-3.1
				c2.4-4.1,1-9.3-3.1-11.7C45.5,117.7,34.1,97.9,34,76.7c0.1-32.9,26.8-59.6,59.7-59.6H418c32.9,0,59.7,26.8,59.7,59.7v358.4
				c0,4.3-1.2,8.7-3.5,12.5c-2.4,4.1-1,9.3,3,11.7c1.4,0.8,2.9,1.2,4.3,1.2c2.9,0,5.8-1.5,7.4-4.2c3.8-6.5,5.8-13.8,5.8-21.2V76.8
				C494.8,34.4,460.4,0,418,0z"/>
			<linearGradient id="SVGID_10_" gradientUnits="userSpaceOnUse" x1="11.5499" y1="-6.1717" x2="616.5499" y2="626.8283">
				<stop  offset="1.240079e-03" style="stop-color:#BC9B79"/>
				<stop  offset="0.9987" style="stop-color:#3A2121"/>
			</linearGradient>
			<path class="st9" d="M443.6,392.3c0-28.2-23-51.2-51.2-51.2s-51.2,23-51.2,51.2s23,51.2,51.2,51.2
				C420.7,443.5,443.6,420.6,443.6,392.3z M392.4,426.5c-18.8,0-34.1-15.3-34.1-34.1s15.3-34.1,34.1-34.1
				c18.8,0,34.1,15.3,34.1,34.1S411.3,426.5,392.4,426.5z"/>
			<linearGradient id="SVGID_11_" gradientUnits="userSpaceOnUse" x1="-53.2667" y1="55.7779" x2="551.7333" y2="688.7778">
				<stop  offset="1.240079e-03" style="stop-color:#BC9B79"/>
				<stop  offset="0.9987" style="stop-color:#3A2121"/>
			</linearGradient>
			<path class="st10" d="M377,452.1c-4.1-2.4-9.3-1-11.7,3.1L347,487l-2.9-4.4c-1.5-2.2-3.9-3.7-6.6-3.8l-5.3-0.3l18.7-32.3
				c2.4-4.1,1-9.3-3.1-11.7c-4.1-2.4-9.3-1-11.7,3.1l-25.6,44.3c-1.5,2.6-1.5,5.7-0.1,8.3s4,4.3,7,4.5l14.8,0.9l8.2,12.4
				c1.6,2.4,4.3,3.8,7.1,3.8h0.3c2.9-0.1,5.6-1.7,7.1-4.3l25.3-43.8C382.5,459.7,381.1,454.4,377,452.1z"/>
			<linearGradient id="SVGID_12_" gradientUnits="userSpaceOnUse" x1="-4.0347" y1="8.7235" x2="600.9653" y2="641.7235">
				<stop  offset="1.240079e-03" style="stop-color:#BC9B79"/>
				<stop  offset="0.9987" style="stop-color:#3A2121"/>
			</linearGradient>
			<path class="st11" d="M449,438c-2.4-4.1-7.6-5.5-11.7-3.1c-4.1,2.4-5.5,7.6-3.1,11.7l18.5,31.9l-5.3,0.3
				c-2.7,0.2-5.1,1.6-6.6,3.8l-2.9,4.4l-18.3-31.7c-2.4-4.1-7.6-5.5-11.7-3.1c-4.1,2.4-5.5,7.6-3.1,11.7l25.2,43.6
				c1.5,2.6,4.2,4.2,7.1,4.3h0.3c2.9,0,5.5-1.4,7.1-3.8l8.2-12.4l14.8-0.9c3-0.2,5.6-1.9,7-4.5s1.3-5.8-0.1-8.3L449,438z"/>
			<linearGradient id="SVGID_13_" gradientUnits="userSpaceOnUse" x1="-14.4961" y1="18.7222" x2="590.5038" y2="651.7222">
				<stop  offset="1.240079e-03" style="stop-color:#BC9B79"/>
				<stop  offset="0.9987" style="stop-color:#3A2121"/>
			</linearGradient>
			<path class="st12" d="M162,238.7h51.2c4.7,0,8.5-3.8,8.5-8.5s-3.8-8.5-8.5-8.5H162c-4.7,0-8.5,3.8-8.5,8.5S157.3,238.7,162,238.7
				z"/>
			<linearGradient id="SVGID_14_" gradientUnits="userSpaceOnUse" x1="-26.6913" y1="30.3779" x2="578.3087" y2="663.3779">
				<stop  offset="1.240079e-03" style="stop-color:#BC9B79"/>
				<stop  offset="0.9987" style="stop-color:#3A2121"/>
			</linearGradient>
			<path class="st13" d="M162,289.9h102.4c4.7,0,8.5-3.8,8.5-8.5s-3.8-8.5-8.5-8.5H162c-4.7,0-8.5,3.8-8.5,8.5
				S157.3,289.9,162,289.9z"/>
			<linearGradient id="SVGID_15_" gradientUnits="userSpaceOnUse" x1="-77.5431" y1="78.9804" x2="527.4569" y2="711.9803">
				<stop  offset="1.240079e-03" style="stop-color:#BC9B79"/>
				<stop  offset="0.9987" style="stop-color:#3A2121"/>
			</linearGradient>
			<path class="st14" d="M162.9,396.2c2.1,4.2,7.2,5.9,11.4,3.8c4.2-2.1,5.9-7.2,3.8-11.5c-8.4-16.9-10.3-32.1-5.1-40.6
				c2.8-4.5,7.7-6.8,14.5-6.8c4.1,0,5.6,1.4,6.5,2.8c6.4,9.2,0.3,37.1-6,54c-1.4,3.8,0,8,3.4,10.2c3.4,2.2,7.8,1.7,10.6-1.1
				c3.6-3.6,7.6-7.3,11-10.2v4.2c0,3.4,2.1,6.6,5.3,7.9c3.2,1.3,6.9,0.6,9.3-1.8c3.9-3.9,8.4-7.7,12.2-10.5
				c-0.1,0.2-0.2,0.4-0.3,0.6c-1.3,2.6-1.2,5.8,0.4,8.3c1.6,2.5,4.3,4,7.3,4h34.1c4.7,0,8.5-3.8,8.5-8.5s-3.8-8.5-8.5-8.5h-22.2
				c0.7-4.1,0.5-8.2-1.5-11.5c-2.2-3.5-6-5.5-10.4-5.5c-5.3,0-11.5,3.2-17.1,7.2c-0.4-3.7-2.6-6.8-6-8.2c-2.3-0.9-5.2-2.2-12.3,2.1
				c2.8-14.7,3.6-31.6-3.7-42.2c-3.2-4.6-9.4-10.1-20.6-10.1c-12.8,0-23.1,5.3-29,14.9C150.1,352.8,151.7,373.6,162.9,396.2z"/>
			<linearGradient id="SVGID_16_" gradientUnits="userSpaceOnUse" x1="40.2025" y1="-33.5569" x2="645.2025" y2="599.4431">
				<stop  offset="1.240079e-03" style="stop-color:#BC9B79"/>
				<stop  offset="0.9987" style="stop-color:#3A2121"/>
			</linearGradient>
			<path class="st15" d="M392.4,281.4c0-4.7-3.8-8.5-8.5-8.5h-85.3c-4.7,0-8.5,3.8-8.5,8.5s3.8,8.5,8.5,8.5h85.3
				C388.6,289.9,392.4,286.1,392.4,281.4z"/>
		</g>
	</g>
</g>
</svg>
