<?xml version="1.0" encoding="utf-8"?>
<!-- Generator: Adobe Illustrator 23.0.1, SVG Export Plug-In . SVG Version: 6.00 Build 0)  -->
<svg version="1.1" id="Layer_1" xmlns="http://www.w3.org/2000/svg" xmlns:xlink="http://www.w3.org/1999/xlink" x="0px" y="0px"
	 viewBox="0 0 481.9 311.8" style="enable-background:new 0 0 481.9 311.8;" xml:space="preserve">
<style type="text/css">
	.st0{fill:#332121;}
	.st1{fill-rule:evenodd;clip-rule:evenodd;fill:#CAC163;}
	.st2{fill-rule:evenodd;clip-rule:evenodd;fill:#FFFFFF;}
	.st3{fill-rule:evenodd;clip-rule:evenodd;fill:#332121;}
</style>
<g id="XMLID_1_">
	<path id="XMLID_10_" class="st0" d="M241,259c-126.5,0-225.7-45-225.7-102.4c0-57.4,99.1-102.4,225.7-102.4
		c126.5,0,225.7,45,225.7,102.4C466.6,214,367.5,259,241,259z M241,67.1c-57.7,0-111.8,9.8-152.4,27.6
		c-38.3,16.8-60.3,39.3-60.3,61.9c0,22.6,22,45.1,60.3,61.9C129.2,236.2,183.3,246,241,246c57.7,0,111.8-9.8,152.4-27.6
		c38.3-16.8,60.3-39.3,60.3-61.9c0-22.6-22-45.1-60.3-61.9C352.7,76.9,298.6,67.1,241,67.1z"/>
	<path id="XMLID_133_" class="st1" d="M460.1,156.5c0,53-98.1,95.9-219.2,95.9c-121.1,0-219.2-42.9-219.2-95.9
		c0-53,98.1-95.9,219.2-95.9C362,60.6,460.1,103.5,460.1,156.5"/>
	<path id="XMLID_5_" class="st0" d="M257.8,243.2c-54.4,0-105.6-8.9-144.1-25.1C74.5,201.6,53,179.5,53,155.8
		c0-23.7,21.6-45.8,60.7-62.2c38.5-16.2,89.7-25.1,144.1-25.1c54.4,0,105.6,8.9,144.1,25.1c39.1,16.4,60.7,38.5,60.7,62.2
		c0,23.7-21.6,45.8-60.7,62.2C363.4,234.3,312.2,243.2,257.8,243.2z M257.8,73c-110.5,0-200.4,37.2-200.4,82.9
		c0,45.7,89.9,82.9,200.4,82.9c110.5,0,200.4-37.2,200.4-82.9C458.2,110.1,368.3,73,257.8,73z"/>
	<path id="XMLID_131_" class="st2" d="M460.4,155.8c0,47-90.7,85.1-202.6,85.1S55.2,202.9,55.2,155.8c0-47,90.7-85.1,202.6-85.1
		S460.4,108.9,460.4,155.8"/>
	<rect id="XMLID_130_" x="152.7" y="117.5" class="st3" width="272.1" height="8"/>
	<rect id="XMLID_129_" x="82.6" y="177.1" class="st3" width="342.1" height="8"/>
	<g>
		<path class="st0" d="M157.3,172.2v-7.7h2.3c0.7,0,1.3-0.1,1.6-0.4c0.3-0.3,0.5-0.9,0.5-2v-21.9c0-1-0.2-1.7-0.5-1.9
			c-0.3-0.3-0.9-0.4-1.6-0.4h-2.3v-7.7h20.9v7.7h-2.1c-0.7,0-1.1,0.1-1.5,0.4c-0.3,0.3-0.5,0.9-0.5,1.9v23.5h5
			c1.1,0,1.9-0.1,2.5-0.3c0.5-0.2,1-0.7,1.3-1.5s0.6-2.1,0.6-3.9h7.4v14H157.3z"/>
		<path class="st0" d="M223.9,172.2v-7.7h1.1c0.7,0,1.2-0.1,1.6-0.4c0.3-0.3,0.5-0.9,0.5-2l0.1-14.6h-0.7l-7.3,18.2h-5.3l-7.7-17.8
			h-0.4v14.3c0,0.8,0.1,1.4,0.4,1.8c0.3,0.4,0.8,0.6,1.7,0.6h1.1v7.7H195v-7.7h1.7c0.8,0,1.3-0.1,1.6-0.4c0.3-0.3,0.5-0.9,0.5-1.9
			v-21.8c0-0.9-0.1-1.5-0.3-1.9c-0.2-0.4-0.8-0.5-1.8-0.5H195v-7.7h16.5l7.1,16.4h0.9l6.7-16.4h17.5v7.7h-1.7c-1,0-1.6,0.2-1.8,0.5
			s-0.4,1-0.4,1.9v21.8c0,0.7,0.1,1.2,0.3,1.6c0.2,0.4,0.4,0.6,0.7,0.6c0.3,0.1,0.7,0.1,1.2,0.1h1.7v7.7H223.9z"/>
		<path class="st0" d="M279.7,130.2l8.4,30.7c0.4,1.4,0.8,2.3,1.1,2.8s1,0.7,1.9,0.7h0.9v7.7h-20v-7.7h1.4c1.1,0,1.6-0.3,1.6-1
			c0-0.3-0.1-0.6-0.2-1.2c0-0.1,0-0.3-0.1-0.4c0-0.2-0.1-0.3-0.1-0.4h-12.4c-0.2,0.6-0.4,1.1-0.4,1.5c0,0.4,0.1,0.8,0.3,1
			c0.2,0.2,0.4,0.3,0.6,0.4c0.2,0.1,0.5,0.1,0.8,0.1h0.6v7.7h-16.1v-7.7h0.9c0.7,0,1.3-0.1,1.8-0.4c0.4-0.3,0.8-0.8,1.1-1.5
			c0.3-0.7,0.7-1.8,1.1-3.2l5.8-18.6c0.3-1,0.5-1.6,0.5-2c0-0.3-0.1-0.5-0.4-0.6c-0.3-0.1-1-0.2-2.1-0.2h-1v-7.7H279.7z
			 M268.5,141.1l-3.7,12h7.3l-3.4-12H268.5z"/>
		<path class="st0" d="M334.1,146.3h-14.2c-0.1-3-0.5-5.3-1.1-6.6c-0.6-1.4-1.9-2.1-3.9-2.1c-1.2,0-2.1,0.3-2.8,0.8
			c-0.7,0.5-1.2,1.3-1.6,2.2c-0.4,0.9-0.6,2-0.7,3.1c-0.1,1.2-0.2,2.5-0.2,4.1v3.2c0,0.4,0,0.9,0.1,1.4c0,0.5,0,1.5,0.1,3
			c0,2.7,0.2,4.8,0.7,6.2c0.4,1.4,1,2.3,1.7,2.7c0.7,0.4,1.7,0.6,2.9,0.6c0.6,0,1.1-0.1,1.7-0.2c0.6-0.2,1.2-0.5,1.8-1.1
			c0.6-0.6,1.1-1.6,1.5-2.9c0.4-1.3,0.6-3.1,0.6-5.3h14.2c-0.1,3.4-0.9,6.4-2.6,9.2c-1.6,2.7-3.9,4.9-6.9,6.4
			c-3,1.6-6.4,2.3-10.2,2.3c-2.9,0-5.8-0.6-8.8-1.7c-2.9-1.2-5.4-3.4-7.5-6.6c-2.1-3.3-3.2-7.8-3.2-13.7c0-4.1,0.8-7.9,2.3-11.2
			s3.8-6,6.7-7.9c2.9-1.9,6.3-2.9,10.2-2.9c3,0,5.8,0.5,8.2,1.4s4.4,2.2,6,3.8c1.6,1.6,2.9,3.4,3.7,5.5
			C333.6,141.9,334,144.1,334.1,146.3z"/>
		<path class="st0" d="M359.1,129.2c3.7,0,6.8,0.7,9.3,2.2s4.5,3.3,6,5.4c0.9,1.2,1.6,2.5,2.2,4s1,2.7,1.3,4s0.4,2.4,0.5,3.4
			s0.1,2,0.1,3c0,1.3-0.1,2.6-0.2,3.9s-0.4,2.6-0.7,3.8s-0.7,2.4-1.2,3.7s-1.1,2.3-1.8,3.3c-3.5,4.9-8.7,7.4-15.6,7.4
			c-3.8,0-7-0.7-9.5-2.1s-4.6-3.2-6.1-5.3c-1.3-1.8-2.2-3.9-2.9-6.4s-1-5.2-1-8.2c0.1-1.8,0.2-3.3,0.3-4.5s0.5-2.7,1.1-4.5
			s1.5-3.6,2.7-5.3c0.8-1.2,1.8-2.3,3-3.4s2.8-2.1,5-2.9S356.3,129.2,359.1,129.2z M359.1,137.6c-1.2,0-2.2,0.3-2.9,0.9
			s-1.3,1.5-1.7,2.6c-0.4,1.1-0.6,2.3-0.7,3.6c-0.1,1.3-0.2,2.8-0.2,4.5v4c0,2.2,0.1,4.1,0.3,5.7s0.7,3,1.5,4.2s2,1.7,3.6,1.7
			c2.3,0,3.8-1,4.5-3.1s1-4.9,1-8.4v-4c0-3.5-0.3-6.3-1-8.4S361.4,137.6,359.1,137.6z"/>
		<path class="st0" d="M384.5,130.2h20.9c6.2,0,10.3,1.3,12.3,3.8s3,5.4,3,8.6c0,1.9-0.5,3.7-1.5,5.4s-2.4,2.9-4.2,3.9l3.5,6.1
			c0.4,0.7,0.9,1.7,1.5,2.7s1.2,2,1.9,2.6s1.6,1,2.6,1.2v7.7h-19.5v-7.7c0.8,0,1.3-0.2,1.7-0.4s0.5-0.6,0.5-1.1c0-0.6-0.3-1.5-1-2.7
			l-2.3-4.5h-3.3v6.4c0,0.7,0.1,1.2,0.3,1.7s0.8,0.7,1.6,0.7v7.7h-18v-7.7h1.7c0.6,0,1-0.1,1.3-0.2s0.5-0.4,0.6-0.9s0.2-1.2,0.2-2.2
			v-19.9c0-1.3-0.1-2.2-0.3-2.7s-0.8-0.7-1.8-0.7h-1.7V130.2z M400.6,138.7v8.6h1.3c1.5,0,2.7-0.4,3.6-1.2s1.3-2,1.3-3.5
			c0-1.7-0.5-2.8-1.5-3.2c-1-0.4-2.2-0.7-3.6-0.7H400.6z"/>
	</g>
	<g>
		<path class="st0" d="M133,66.7l13.5,77.1c0.7,3.5,1.3,5.9,1.8,7.1c0.5,1.2,1.6,1.8,3.1,1.8h1.5V172h-32v-19.4h2.3
			c1.7,0,2.6-0.8,2.6-2.4c0-0.6-0.1-1.6-0.4-3c0-0.3-0.1-0.6-0.1-1c-0.1-0.4-0.1-0.7-0.1-0.9h-19.9c-0.4,1.5-0.6,2.7-0.6,3.6
			c0,1.1,0.1,1.9,0.4,2.5c0.3,0.5,0.6,0.9,1,1c0.4,0.1,0.8,0.2,1.3,0.2h0.9V172H82.6v-19.4h1.5c1.2,0,2.1-0.3,2.8-1
			c0.7-0.7,1.3-1.9,1.8-3.7c0.5-1.8,1.1-4.5,1.8-8.1l9.3-46.7c0.5-2.4,0.8-4.1,0.8-5c0-0.7-0.2-1.3-0.6-1.6S98.5,86,96.6,86H95V66.7
			H133z M115.2,93.8l-5.9,30.2h11.7l-5.4-30.2H115.2z"/>
	</g>
</g>
</svg>
