<?xml version="1.0" encoding="utf-8"?>
<!-- Generator: Adobe Illustrator 23.0.1, SVG Export Plug-In . SVG Version: 6.00 Build 0)  -->
<svg version="1.1" id="Слой_1" xmlns="http://www.w3.org/2000/svg" xmlns:xlink="http://www.w3.org/1999/xlink" x="0px" y="0px"
	 viewBox="0 0 50.2 12.5" style="enable-background:new 0 0 50.2 12.5;" xml:space="preserve">
<style type="text/css">
	.st0{fill:none;}
</style>
<g id="Слой_x0020_1">
	<g id="_650146488">
		<path class="st0" d="M10,6.7C9.8,6.5,9.4,6.5,9.2,6.5c-0.9,0-1.4,0.7-1.4,1.4v2.3H6.3V9.9c-0.5,0.2-0.8,0.4-1.3,0.4
			c-1.5,0-2.7-1.2-2.7-2.8S3.5,4.7,5,4.7c0.5,0,0.9,0.1,1.3,0.4V5h1.5v0.7c0.2-0.6,1-0.9,1.4-0.8C8.4,3.6,6.9,2.7,5.2,2.7
			c-2.7,0-4.8,2.2-4.8,4.8s2.2,4.8,4.8,4.8c2.7,0,4.8-2.2,4.8-4.8C10.1,7.2,10.1,6.9,10,6.7z M5.1,6.1L5.1,6.1
			c-0.8,0-1.4,0.6-1.4,1.4s0.6,1.4,1.4,1.4s1.4-0.6,1.4-1.4S5.9,6.1,5.1,6.1z"/>
		<g>
			<path class="st0" d="M16.6,9.9V9.3c-0.5,0.5-0.9,0.8-1.6,0.8c-1.4,0-2.5-1.1-2.5-2.6s1-2.6,2.5-2.6c0.7,0,1.2,0.2,1.6,0.8V5.1
				h1.1v4.8H16.6z M15.2,6L15.2,6c-0.9,0-1.4,0.7-1.4,1.5c0,0.9,0.6,1.4,1.4,1.4s1.4-0.7,1.4-1.4C16.6,6.7,16,6,15.2,6z"/>
			<path class="st0" d="M19.8,7.3v2.7h-1.2V5.1h1.1v0.5C20,5.1,20.3,5,20.8,5h0.1v1.1C20.2,6.1,19.8,6.5,19.8,7.3z"/>
			<path class="st0" d="M25.9,7.3v2.7h-1.2V5.1h1.1v0.5c0.3-0.4,0.5-0.6,1-0.6h0.1v1.1C26.2,6.1,25.9,6.5,25.9,7.3z"/>
			<path class="st0" d="M31.4,9.9V9.3c-0.5,0.5-0.9,0.8-1.6,0.8c-1.4,0-2.4-1.1-2.4-2.6s1-2.6,2.5-2.6c0.7,0,1.2,0.2,1.6,0.8V5.1
				h1.1v4.8H31.4z M29.9,6L29.9,6c-0.8,0-1.4,0.7-1.4,1.5c0,0.9,0.6,1.4,1.4,1.4c0.9,0,1.4-0.7,1.4-1.4C31.3,6.7,30.7,6,29.9,6z"/>
			<path class="st0" d="M36.5,9.9V7.6c0-1.3-0.3-1.5-0.9-1.5c-0.4,0-0.7,0.2-0.9,0.5c-0.1,0.3-0.2,0.5-0.2,1.2v2.3h-1.2V5.1h1.1v0.5
				C34.9,5.1,35.3,5,35.8,5c0.7,0,1.2,0.2,1.5,0.7c0.3,0.4,0.3,0.8,0.3,1.7v2.6H36.5z"/>
			<path class="st0" d="M41.1,11.9c-1.2,0-2.1-0.6-2.5-1.6h1.3c0.3,0.4,0.7,0.5,1.2,0.5c0.9,0,1.3-0.5,1.4-1.6
				c-0.5,0.5-0.9,0.8-1.6,0.8c-1.4,0-2.4-1.1-2.4-2.6c0-1.4,1-2.5,2.4-2.5c0.7,0,1.2,0.2,1.6,0.7V5.1h1.1V9
				C43.7,11.1,42.6,11.9,41.1,11.9z M41.1,6L41.1,6c-0.8,0-1.4,0.6-1.4,1.5S40.3,9,41.1,9c0.8,0,1.4-0.6,1.4-1.5S41.9,6,41.1,6z"/>
			<path class="st0" d="M49.5,8.1h-3.8c0.1,0.6,0.7,1,1.4,1c0.5,0,0.8-0.1,1-0.5h1.3c-0.3,1-1.3,1.6-2.3,1.6c-1.5,0-2.6-1.1-2.6-2.6
				S45.7,5,47.1,5c1.4,0,2.5,1.1,2.5,2.6C49.6,7.8,49.6,7.9,49.5,8.1z M47.1,6L47.1,6c-0.7,0-1.2,0.4-1.4,1h2.7
				C48.3,6.4,47.8,6,47.1,6z"/>
			<path class="st0" d="M23.5,8.9c-0.4,0-0.7-0.1-0.7-0.7V7V6.2h1V5.1h-1V3.5h-1.2v5c0,1.1,0.8,1.5,1.4,1.5h0.8V9.8V8.9H23.5z"/>
		</g>
		<path class="st0" d="M36.8,2.7V0.2h0.9c0.2,0,0.4,0,0.5,0.1c0.1,0.1,0.3,0.1,0.4,0.3c0.1,0.1,0.2,0.3,0.2,0.4
			c0.1,0.1,0.1,0.3,0.1,0.5c0,0.2,0,0.4-0.1,0.5c-0.1,0.2-0.1,0.3-0.3,0.4c-0.1,0.1-0.2,0.2-0.4,0.3c-0.2,0.1-0.3,0.1-0.5,0.1H36.8z
			 M38.4,1.4c0-0.1,0-0.2-0.1-0.3c0-0.1-0.1-0.2-0.1-0.3C38.1,0.8,38,0.7,38,0.7c-0.1,0-0.2-0.1-0.3-0.1h-0.4v1.6h0.4
			c0.1,0,0.2,0,0.3-0.1C38,2.1,38.1,2.1,38.2,2c0.1-0.1,0.1-0.2,0.1-0.3C38.4,1.6,38.4,1.6,38.4,1.4z"/>
		<polygon class="st0" points="39.2,2.7 39.2,0.2 39.7,0.2 39.7,2.7 		"/>
		<path class="st0" d="M41.9,2.4c-0.2,0.2-0.4,0.3-0.7,0.3c-0.2,0-0.3,0-0.5-0.1c-0.1-0.1-0.3-0.2-0.4-0.3c-0.1-0.1-0.2-0.2-0.3-0.4
			c-0.1-0.1-0.1-0.3-0.1-0.5s0-0.3,0.1-0.5c0.1-0.1,0.2-0.3,0.3-0.4c0.1-0.1,0.2-0.2,0.4-0.3c0.1-0.1,0.3-0.1,0.5-0.1
			c0.2,0,0.4,0.1,0.6,0.1s0.3,0.2,0.4,0.4L41.9,1c-0.1-0.1-0.2-0.2-0.3-0.3c-0.1-0.1-0.2-0.1-0.3-0.1c-0.1,0-0.2,0-0.3,0.1
			c-0.1,0.1-0.2,0.1-0.2,0.2c-0.1,0.1-0.1,0.2-0.1,0.3c0,0.1-0.1,0.2-0.1,0.3s0,0.2,0.1,0.3c0,0.1,0.1,0.2,0.1,0.3
			c0.1,0.1,0.1,0.1,0.2,0.2c0.1,0.1,0.2,0.1,0.3,0.1c0.2,0,0.4-0.1,0.6-0.3V1.8h-0.5V1.4h0.9v1.3h-0.4V2.4z"/>
		<polygon class="st0" points="42.7,2.7 42.7,0.2 43.2,0.2 43.2,2.7 		"/>
		<polygon class="st0" points="45.5,0.6 44.7,0.6 44.7,2.7 44.2,2.7 44.2,0.6 43.5,0.6 43.5,0.2 45.5,0.2 		"/>
		<path class="st0" d="M46.3,0.2h0.4l0.9,2.4h-0.5L46.9,2H46l-0.2,0.6h-0.5L46.3,0.2z M46.8,1.7l-0.3-0.9l-0.3,0.9H46.8z"/>
		<polygon class="st0" points="47.9,2.7 47.9,0.2 48.4,0.2 48.4,2.2 49.6,2.2 49.6,2.7 		"/>
	</g>
</g>
</svg>
