<?xml version="1.0" encoding="UTF-8" standalone="no"?><!-- Generator: Gravit.io --><svg xmlns="http://www.w3.org/2000/svg" xmlns:xlink="http://www.w3.org/1999/xlink" style="isolation:isolate" viewBox="0 0 152 80" width="152pt" height="80pt"><defs><clipPath id="_clipPath_xe3EDslNU9XsqmSDVCQ4QNsarYYyABnn"><rect width="152" height="80"/></clipPath></defs><g clip-path="url(#_clipPath_xe3EDslNU9XsqmSDVCQ4QNsarYYyABnn)"><clipPath id="_clipPath_HVJbSKo1YlevfiIAWNKWt8ycXEbU16ww"><rect x="6" y="5" width="140" height="70" transform="matrix(1,0,0,1,0,0)" fill="rgb(255,255,255)"/></clipPath><g clip-path="url(#_clipPath_HVJbSKo1YlevfiIAWNKWt8ycXEbU16ww)"><g><path d=" M 76.004 66.363 C 40.989 66.363 12.606 54.561 12.606 40.004 C 12.606 25.439 40.989 13.637 76.004 13.637 C 100.138 13.637 121.124 19.249 131.831 27.504 C 137.229 31.171 140.114 35.392 140.114 39.812 C 140.114 43.244 138.365 46.549 135.066 49.573 C 125.852 59.401 102.89 66.363 76.004 66.363 Z  M 76.004 11.853 C 39.399 11.853 10.728 24.216 10.728 40.004 C 10.728 55.784 39.399 68.147 76.004 68.147 C 112.601 68.147 141.272 55.784 141.272 40.004 C 141.272 24.216 112.601 11.853 76.004 11.853 Z " fill="rgb(41,39,35)"/><path d=" M 122.56 56.909 C 116.523 59.318 109.407 61.133 101.66 62.299 C 95.101 63.286 88.089 63.806 80.875 63.806 C 65.138 63.806 50.333 61.355 39.186 56.909 C 27.864 52.39 21.629 46.32 21.629 39.812 C 21.629 33.308 27.864 27.237 39.186 22.719 C 50.333 18.272 65.138 15.825 80.875 15.825 C 84.397 15.825 87.866 15.955 91.262 16.194 C 103.049 17.024 113.907 19.267 122.56 22.719 C 126.186 24.168 129.285 25.774 131.831 27.504 C 121.124 19.249 100.138 13.637 76.004 13.637 C 40.989 13.637 12.606 25.439 12.606 40.004 C 12.606 54.561 40.989 66.363 76.004 66.363 C 102.89 66.363 125.852 59.401 135.066 49.573 C 132.109 52.284 127.91 54.773 122.56 56.909 Z " fill="rgb(184,173,83)"/><path d=" M 80.875 16.429 C 48.508 16.429 22.269 26.899 22.269 39.812 C 22.269 52.729 48.508 63.198 80.875 63.198 C 94.255 63.198 106.582 61.407 116.447 58.393 C 128.874 54.599 137.386 48.866 139.135 42.321 C 139.358 41.497 139.477 40.66 139.477 39.812 C 139.477 38.192 139.064 36.609 138.275 35.082 C 134.713 28.167 123.495 22.367 108.312 19.151 C 100.123 17.417 90.791 16.429 80.875 16.429 Z " fill="rgb(255,255,255)"/><path d=" M 129.18 31.458 L 50.484 31.458 L 50.484 29.264 L 129.18 29.264 L 129.18 31.458 Z " fill-rule="evenodd" fill="rgb(41,39,35)"/><path d=" M 129.144 47.851 L 30.206 47.851 L 30.206 45.66 L 129.144 45.66 L 129.144 47.851 Z " fill-rule="evenodd" fill="rgb(41,39,35)"/><path d=" M 51.794 44.32 L 51.794 42.195 L 52.456 42.195 C 52.668 42.195 52.823 42.157 52.919 42.089 C 53.017 42.02 53.064 41.839 53.064 41.549 L 53.064 35.536 C 53.064 35.252 53.017 35.075 52.919 35.003 C 52.823 34.935 52.668 34.901 52.456 34.901 L 51.794 34.901 L 51.794 32.774 L 57.853 32.774 L 57.853 34.901 L 57.241 34.901 C 57.05 34.901 56.909 34.938 56.824 35.017 C 56.733 35.096 56.69 35.266 56.69 35.536 L 56.69 41.992 L 58.133 41.992 C 58.453 41.992 58.694 41.969 58.853 41.921 C 59.011 41.87 59.14 41.74 59.241 41.521 C 59.342 41.302 59.406 40.95 59.428 40.461 L 61.58 40.461 L 61.58 44.32 L 51.794 44.32 Z " fill="rgb(41,39,35)"/><path d=" M 72.006 44.32 L 72.006 42.195 L 72.337 42.195 C 72.546 42.195 72.697 42.157 72.795 42.089 C 72.888 42.02 72.938 41.839 72.938 41.549 L 72.963 37.536 L 72.769 37.536 L 70.653 42.523 L 69.113 42.523 L 66.88 37.624 L 66.768 37.624 L 66.768 41.549 C 66.768 41.77 66.808 41.931 66.883 42.037 C 66.959 42.139 67.116 42.195 67.361 42.195 L 67.692 42.195 L 67.692 44.32 L 62.975 44.32 L 62.975 42.195 L 63.476 42.195 C 63.702 42.195 63.861 42.157 63.951 42.082 C 64.041 42.006 64.084 41.829 64.084 41.549 L 64.084 35.56 C 64.084 35.321 64.051 35.15 63.987 35.048 C 63.922 34.951 63.753 34.901 63.476 34.901 L 62.975 34.901 L 62.975 32.774 L 68.383 32.774 L 70.423 37.293 L 70.686 37.293 L 72.614 32.774 L 77.691 32.774 L 77.691 34.901 L 77.198 34.901 C 76.917 34.901 76.741 34.951 76.672 35.048 C 76.608 35.15 76.572 35.321 76.572 35.56 L 76.572 41.549 C 76.572 41.743 76.601 41.887 76.651 41.986 C 76.709 42.082 76.774 42.139 76.857 42.16 C 76.939 42.184 77.055 42.195 77.198 42.195 L 77.691 42.195 L 77.691 44.32 L 72.006 44.32 Z " fill="rgb(41,39,35)"/><path d=" M 85.196 35.758 L 84.138 39.067 L 86.258 39.067 L 85.282 35.758 L 85.196 35.758 Z  M 88.409 32.778 L 90.848 41.223 C 90.974 41.61 91.082 41.87 91.176 41.999 C 91.269 42.132 91.456 42.198 91.741 42.198 L 92.003 42.198 L 92.003 44.323 L 86.207 44.323 L 86.207 42.198 L 86.621 42.198 C 86.93 42.198 87.089 42.109 87.089 41.935 C 87.089 41.866 87.064 41.757 87.02 41.607 C 87.013 41.576 87.006 41.538 86.992 41.497 C 86.981 41.453 86.973 41.418 86.97 41.391 L 83.376 41.391 C 83.308 41.551 83.274 41.685 83.274 41.791 C 83.274 41.914 83.3 42.003 83.35 42.061 C 83.401 42.119 83.462 42.157 83.531 42.174 C 83.602 42.191 83.682 42.198 83.772 42.198 L 83.944 42.198 L 83.944 44.323 L 79.299 44.323 L 79.299 42.198 L 79.569 42.198 C 79.785 42.198 79.954 42.16 80.08 42.085 C 80.203 42.01 80.314 41.873 80.411 41.678 C 80.505 41.48 80.616 41.186 80.739 40.796 L 82.419 35.677 C 82.512 35.413 82.563 35.232 82.563 35.13 C 82.563 35.051 82.523 34.992 82.447 34.955 C 82.372 34.921 82.166 34.904 81.832 34.904 L 81.537 34.904 L 81.537 32.778 L 88.409 32.778 Z " fill="rgb(41,39,35)"/><path d=" M 103.628 37.201 L 99.508 37.201 C 99.468 36.364 99.364 35.755 99.192 35.379 C 99.019 34.999 98.645 34.811 98.069 34.811 C 97.724 34.811 97.45 34.883 97.245 35.027 C 97.044 35.174 96.889 35.376 96.784 35.632 C 96.68 35.888 96.612 36.175 96.576 36.493 C 96.544 36.808 96.526 37.18 96.526 37.611 L 96.526 38.503 C 96.533 38.619 96.537 38.745 96.544 38.883 C 96.548 39.016 96.554 39.286 96.562 39.692 C 96.565 40.445 96.63 41.012 96.756 41.402 C 96.878 41.791 97.044 42.034 97.252 42.136 C 97.458 42.239 97.741 42.29 98.102 42.29 C 98.267 42.29 98.432 42.266 98.602 42.222 C 98.771 42.177 98.94 42.071 99.109 41.908 C 99.281 41.743 99.422 41.483 99.534 41.121 C 99.649 40.759 99.702 40.273 99.702 39.668 L 103.815 39.668 C 103.79 40.599 103.541 41.439 103.067 42.191 C 102.595 42.943 101.926 43.534 101.07 43.961 C 100.21 44.389 99.228 44.601 98.12 44.601 C 97.271 44.601 96.429 44.44 95.587 44.122 C 94.745 43.801 94.015 43.196 93.403 42.297 C 92.791 41.402 92.485 40.151 92.485 38.548 C 92.485 37.409 92.709 36.38 93.158 35.464 C 93.608 34.545 94.255 33.823 95.097 33.294 C 95.943 32.764 96.929 32.501 98.051 32.501 C 98.932 32.501 99.721 32.627 100.415 32.884 C 101.11 33.14 101.693 33.486 102.16 33.923 C 102.631 34.361 102.988 34.859 103.239 35.424 C 103.488 35.984 103.617 36.575 103.628 37.201 Z " fill="rgb(41,39,35)"/><path d=" M 110.745 34.811 C 110.399 34.811 110.122 34.897 109.909 35.068 C 109.698 35.239 109.536 35.482 109.428 35.789 C 109.316 36.097 109.244 36.425 109.216 36.77 C 109.183 37.115 109.169 37.529 109.169 38.011 L 109.169 39.115 C 109.169 39.71 109.198 40.229 109.255 40.676 C 109.316 41.124 109.464 41.508 109.698 41.818 C 109.932 42.132 110.281 42.29 110.745 42.29 C 111.421 42.29 111.857 42.003 112.044 41.425 C 112.234 40.851 112.327 40.079 112.327 39.115 L 112.327 38.011 C 112.327 37.064 112.234 36.292 112.044 35.7 C 111.857 35.109 111.421 34.811 110.745 34.811 Z  M 110.745 32.501 C 111.806 32.501 112.698 32.699 113.421 33.099 C 114.144 33.499 114.727 33.998 115.166 34.593 C 115.429 34.931 115.641 35.293 115.811 35.679 C 115.983 36.066 116.105 36.435 116.181 36.784 C 116.256 37.133 116.307 37.443 116.332 37.714 C 116.357 37.983 116.372 38.264 116.372 38.548 C 116.372 38.906 116.35 39.265 116.307 39.627 C 116.264 39.99 116.202 40.339 116.116 40.674 C 116.034 41.005 115.915 41.34 115.764 41.678 C 115.616 42.017 115.443 42.314 115.241 42.57 C 114.231 43.924 112.734 44.601 110.745 44.601 C 109.647 44.601 108.73 44.406 107.988 44.016 C 107.251 43.627 106.665 43.145 106.236 42.57 C 105.87 42.078 105.593 41.49 105.406 40.807 C 105.219 40.12 105.125 39.367 105.125 38.548 C 105.143 38.051 105.172 37.638 105.211 37.3 C 105.251 36.961 105.359 36.545 105.532 36.052 C 105.708 35.557 105.97 35.071 106.319 34.593 C 106.557 34.278 106.848 33.967 107.193 33.67 C 107.539 33.369 108.018 33.099 108.626 32.86 C 109.237 32.62 109.943 32.501 110.745 32.501 Z " fill="rgb(41,39,35)"/><path d=" M 122.179 35.102 L 122.179 37.477 L 122.56 37.477 C 123.002 37.477 123.348 37.365 123.589 37.142 C 123.83 36.92 123.953 36.595 123.953 36.172 C 123.953 35.7 123.808 35.403 123.528 35.283 C 123.247 35.16 122.898 35.102 122.485 35.102 L 122.179 35.102 Z  M 117.527 32.774 L 123.578 32.774 C 125.38 32.774 126.568 33.123 127.143 33.82 C 127.723 34.517 128.011 35.304 128.011 36.172 C 128.011 36.701 127.87 37.197 127.59 37.648 C 127.309 38.103 126.903 38.458 126.371 38.715 L 127.381 40.4 C 127.492 40.601 127.637 40.855 127.806 41.152 C 127.975 41.449 128.162 41.689 128.364 41.866 C 128.568 42.048 128.817 42.157 129.104 42.195 L 129.104 44.317 L 123.47 44.317 L 123.47 42.195 C 123.697 42.184 123.859 42.15 123.959 42.092 C 124.061 42.037 124.11 41.935 124.11 41.784 C 124.11 41.617 124.014 41.367 123.816 41.036 L 123.143 39.801 L 122.179 39.801 L 122.179 41.549 C 122.179 41.736 122.215 41.89 122.283 42.013 C 122.347 42.132 122.502 42.195 122.747 42.195 L 122.747 44.317 L 117.527 44.317 L 117.527 42.195 L 118.008 42.195 C 118.174 42.195 118.3 42.177 118.387 42.143 C 118.476 42.105 118.538 42.023 118.57 41.897 C 118.602 41.768 118.62 41.562 118.62 41.285 L 118.62 35.81 C 118.62 35.44 118.588 35.195 118.527 35.075 C 118.465 34.951 118.293 34.894 118.008 34.894 L 117.527 34.894 L 117.527 32.774 Z " fill="rgb(41,39,35)"/><path d=" M 39.633 22.773 L 37.942 31.072 L 41.327 31.072 L 39.769 22.773 L 39.633 22.773 Z  M 44.767 15.301 L 48.667 36.483 C 48.865 37.454 49.038 38.103 49.189 38.431 C 49.336 38.763 49.639 38.926 50.088 38.926 L 50.509 38.926 L 50.509 44.255 L 41.245 44.255 L 41.245 38.926 L 41.91 38.926 C 42.406 38.926 42.655 38.705 42.655 38.268 C 42.655 38.093 42.619 37.82 42.547 37.447 C 42.536 37.368 42.522 37.273 42.504 37.167 C 42.486 37.061 42.472 36.975 42.464 36.907 L 36.722 36.907 C 36.614 37.307 36.561 37.642 36.561 37.904 C 36.561 38.212 36.6 38.442 36.683 38.585 C 36.761 38.732 36.859 38.828 36.974 38.865 C 37.086 38.906 37.215 38.926 37.359 38.926 L 37.629 38.926 L 37.629 44.255 L 30.21 44.255 L 30.21 38.926 L 30.642 38.926 C 30.987 38.926 31.257 38.831 31.455 38.643 C 31.653 38.455 31.829 38.114 31.984 37.621 C 32.135 37.129 32.311 36.394 32.509 35.41 L 35.193 22.575 C 35.344 21.912 35.423 21.454 35.423 21.198 C 35.423 20.996 35.362 20.852 35.24 20.764 C 35.117 20.678 34.79 20.634 34.258 20.634 L 33.783 20.634 L 33.783 15.301 L 44.767 15.301 Z " fill="rgb(41,39,35)"/><path d=" M 138.275 35.082 C 139.064 36.609 139.477 38.192 139.477 39.812 C 139.477 40.66 139.358 41.497 139.135 42.321 C 137.386 48.866 128.878 54.599 116.447 58.393 C 106.582 61.407 94.255 63.198 80.875 63.198 C 48.508 63.198 22.269 52.729 22.269 39.812 C 22.269 26.899 48.508 16.429 80.875 16.429 C 90.791 16.429 100.123 17.417 108.312 19.151 C 123.495 22.367 134.717 28.167 138.275 35.082 Z  M 131.831 27.504 C 129.285 25.774 126.186 24.168 122.56 22.719 C 113.907 19.267 103.049 17.024 91.262 16.194 C 87.866 15.952 84.397 15.825 80.875 15.825 C 65.138 15.825 50.333 18.272 39.186 22.719 C 27.864 27.237 21.629 33.308 21.629 39.812 C 21.629 46.32 27.864 52.39 39.186 56.909 C 50.333 61.355 65.138 63.806 80.875 63.806 C 88.089 63.806 95.097 63.286 101.656 62.299 C 109.407 61.133 116.523 59.318 122.56 56.909 C 127.91 54.773 132.109 52.288 135.066 49.573 C 138.365 46.549 140.114 43.24 140.114 39.812 C 140.114 35.392 137.229 31.171 131.831 27.504 Z " fill="rgb(41,39,35)"/></g></g></g></svg>